{"title":"Jana Cova Erotique","uid":7020665,"size":1507175700,"categoryP":"porn","categoryS":"movies","magnet":"?xt=urn:btih:0fc6c062c4c873cc5d1afb6916e9714fc0470d5e&amp;dn=Jana+Cova+Erotique&amp;tr=udp%3A%2F%2Ftracker.openbittorrent.com%3A80&amp;tr=udp%3A%2F%2Fopen.demonii.com%3A1337&amp;tr=udp%3A%2F%2Ftracker.coppersurfer.tk%3A6969&amp;tr=udp%3A%2F%2Fexodus.desync.com%3A6969","seeders":0,"leechers":2,"uploader":"tigris1968","files":103,"time":1328825160,"description":"Jana Cova: Erotique DVD\n\nDigital Playground\n\n\nCategory All Sex, Girl-Girl, HD - Shot In High Def, Straight \nDirector Celeste \nStarring Mick Blue, Marco Banderas, Scott Nails, Lexi Love, Harmony, Kelly Kline, Karlie Montana, Sophia Santi, Charlie Laine, Cayton Caley, Jana Cova, Renee Perez, Jamie Lynn\n\nStudio Digital Playground \nDiscs 1 \nRelease Date May 16, 2008\n &lt;a href=&quot;\nhttp://bayimg.com/laMEIaAdi&quot; rel=&quot;nofollow&quot; target=&quot;_NEW&quot;&gt;\nhttp://bayimg.com/laMEIaAdi&lt;/a&gt;\n &lt;a href=&quot;\nhttp://bayimg.com/lAmEKaAdI&quot; rel=&quot;nofollow&quot; target=&quot;_NEW&quot;&gt;\nhttp://bayimg.com/lAmEKaAdI&lt;/a&gt;\n &lt;a href=&quot;\nhttp://bayimg.com/lamelAAdi&quot; rel=&quot;nofollow&quot; target=&quot;_NEW&quot;&gt;\nhttp://bayimg.com/lamelAAdi&lt;/a&gt;\n\nGeneral\nComplete name                    : C:\\Downloads\\Jana Cova Erotique\\dvd\\Jana Cova Erotique.avi\nFormat                           : AVI\nFormat/Info                      : Audio Video Interleave\nFormat profile                   : OpenDML\nFile size                        : 1.38 GiB\nDuration                         : 2h 28mn\nOverall bit rate                 : 1 333 Kbps\nWriting application              : MEncoder SVN-r30881(20100311-gcc4.3.3)\nWriting library                  : MPlayer\n\nVideo\nID                               : 0\nFormat                           : MPEG-4 Visual\nFormat profile                   : Advanced Simple@L5\nFormat settings, BVOP            : 2\nFormat settings, QPel            : No\nFormat settings, GMC             : No warppoints\nFormat settings, Matrix          : Default (H.263)\nCodec ID                         : XVID\nCodec ID/Hint                    : XviD\nDuration                         : 2h 28mn\nBit rate                         : 44.1 Kbps\nWidth                            : 720 pixels\nHeight                           : 480 pixels\nDisplay aspect ratio             : 3:2\nFrame rate                       : 25.000 fps\nStandard                         : NTSC\nColor space                      : YUV\nChroma subsampling               : 4:2:0\nBit depth                        : 8 bits\nScan type                        : Progressive\nCompression mode                 : Lossy\nBits/(Pixel*Frame)               : 0.005\nStream size                      : 46.7 MiB (3%)\nWriting library                  : XviD 1.2.1 (UTC 2008-12-04)\n\nAudio\nID                               : 1\nFormat                           : MPEG Audio\nCodec ID                         : 55\nCodec ID/Hint                    : MP3\nDuration                         : 2h 28mn\nBit rate                         : 128 Kbps\nChannel(s)                       : 2 channels\nSampling rate                    : 44.1 KHz\nCompression mode                 : Lossy\nStream size                      : 136 MiB (10%)\nAlignment                        : Aligned on interleaves","torrent":{"xt":"urn:btih:0fc6c062c4c873cc5d1afb6916e9714fc0470d5e","amp;dn":"Jana+Cova+Erotique","amp;tr":["udp%3A%2F%2Ftracker.openbittorrent.com%3A80","udp%3A%2F%2Fopen.demonii.com%3A1337","udp%3A%2F%2Ftracker.coppersurfer.tk%3A6969","udp%3A%2F%2Fexodus.desync.com%3A6969"],"infoHash":"0fc6c062c4c873cc5d1afb6916e9714fc0470d5e","infoHashBuffer":{"type":"Buffer","data":[15,198,192,98,196,200,115,204,93,26,251,105,22,233,113,79,192,71,13,94]},"announce":[],"urlList":[]}}